<svg id="Capa_1" data-name="Capa 1" xmlns="http://www.w3.org/2000/svg" viewBox="0 0 157.23 40.88"><defs><style>.cls-1{fill:#66fcf0;}.cls-2{fill:#fff;}</style></defs><title>heater ;)</title><path class="cls-1" d="M30.77,23.37a13.59,13.59,0,0,1,3.58.38L26.7,12.38.77,30.87,13.6,49.92l4.82-3.39h0l13.19-9.32L28,31.85h0l-4-6,0,0-.83-1.23L20.4,26.59l6.39,9.5-6.23,4.44-.06,0-6.34-9.53-2.41,1.72,6.34,9.53.12.18h0L14,45.44,4.81,31.77l-.08-.11,0,0,7.66-5.46L26.1,16.42Z" transform="translate(-0.77 -12.38)"/><path class="cls-2" d="M42.88,34.69a11.57,11.57,0,0,1-4.8,9.54l-.21.15-12.5,8.88-3.84-5.78-.39-.59-1-1.5,0,0h0l2.41-1.7,2.3,3.42,1.34,2,10.21-7.25c.17-.12.34-.25.49-.38A8.57,8.57,0,0,0,39,38.82a8.64,8.64,0,0,0-.49-8.74,8.62,8.62,0,0,0-5.33-3.6l-.31-.07a9,9,0,0,0-1.72-.14l-.42,0h-.15a1.45,1.45,0,0,0-.3,0h0c-.23,0-.47.07-.7.12l-.12,0a2.5,2.5,0,0,0-.26.07l-.32.08a4.69,4.69,0,0,0-.6.2,5,5,0,0,0-.62.3,7.25,7.25,0,0,0-1.88,1.28L24,25.86a10.42,10.42,0,0,1,2.29-1.42h0c.17-.09.35-.16.53-.24l.11,0,.44-.17.16-.05.22-.07.18-.06.18-.05.38-.1.2,0h0l.36-.07.2,0h0l.54-.06h.09a13.63,13.63,0,0,1,4.42.33h0l.06,0a11.3,11.3,0,0,1,1.82.67l0,0,.07,0h0a11.47,11.47,0,0,1,6.52,10.18" transform="translate(-0.77 -12.38)"/><path class="cls-2" d="M56.58,31.66a.08.08,0,0,1-.08-.09V24.36a.08.08,0,0,0-.09-.08l-.06,0L53.05,28a.06.06,0,0,1-.06,0,.07.07,0,0,1-.07,0l-3.19-3.72a.07.07,0,0,0-.06,0c-.05,0-.09,0-.09.06v7.21a.1.1,0,0,1-.08.09H46.77a.11.11,0,0,1-.09-.09V17a.09.09,0,0,1,.09-.09l.06,0L53,23.58l.06,0,0,0,6.16-6.68,0,0a.08.08,0,0,1,.08.09V31.57s0,.09-.06.09Z" transform="translate(-0.77 -12.38)"/><path class="cls-2" d="M67.23,16.91a.1.1,0,0,0-.09,0,.06.06,0,0,0-.06,0L60.52,31.52v.05a.1.1,0,0,0,.08.09h3s.06,0,.08-.05l.63-1.39,1.4-3.14.75-1.68L67.08,24c0-.05,0-.05.06-.05a.08.08,0,0,1,.09.05l.53,1.21.84,1.88L70,30.19l.57,1.27.07.15a.1.1,0,0,0,.08.05h3a.11.11,0,0,0,.09-.09Z" transform="translate(-0.77 -12.38)"/><path class="cls-2" d="M83.2,31.66a.09.09,0,0,1-.08-.05L80.71,25.8a.13.13,0,0,0-.09,0H78.25c-.06,0-.08,0-.08.06v5.75a.1.1,0,0,1-.09.09H75.36a.1.1,0,0,1-.09-.09V16.94a.1.1,0,0,1,.09-.09h6.21a4.4,4.4,0,0,1,4.32,4.47,4.45,4.45,0,0,1-2.22,3.87s0,0,0,.07l2.65,6.31a.1.1,0,0,1-.09.09ZM83,21.32a1.44,1.44,0,0,0-1.44-1.48H78.25a.07.07,0,0,0-.08.08v2.77a.07.07,0,0,0,.08.08h3.32A1.44,1.44,0,0,0,83,21.32" transform="translate(-0.77 -12.38)"/><path class="cls-2" d="M95.54,31.66s0,0-.07-.05l-3.72-5.76-.08-.05-.07,0-.74.92s0,1,0,4.83a.08.08,0,0,1-.08.09H88.05a.08.08,0,0,1-.08-.09V16.94a.08.08,0,0,1,.08-.09h2.71a.08.08,0,0,1,.08.09v5c0,.06,0,.08.09.08L91,22c2.48-3,1.4-1.7,4.19-5.09,0,0,0,0,.06,0h3.58a.08.08,0,0,1,.08.09l0,.07-5.2,6.31,0,0,0,.07,5.24,8.1v0a.1.1,0,0,1-.08.09Z" transform="translate(-0.77 -12.38)"/><path class="cls-2" d="M100.7,31.66a.1.1,0,0,1-.08-.09V16.94a.1.1,0,0,1,.08-.09h9.44a.1.1,0,0,1,.08.09v2.81a.1.1,0,0,1-.08.09H103.6a.07.07,0,0,0-.08.08v2.77a.07.07,0,0,0,.08.08h5.29a.1.1,0,0,1,.08.09v2.81a.1.1,0,0,1-.08.09H103.6c-.06,0-.08,0-.08.06v2.77c0,.06,0,.09.08.09h11.15a.09.09,0,0,1,.08.08v2.81a.1.1,0,0,1-.08.09Z" transform="translate(-0.77 -12.38)"/><path class="cls-2" d="M116.74,31.66a.1.1,0,0,1-.08-.09V19.92s0-.08-.09-.08H112a.1.1,0,0,1-.08-.09V16.94a.1.1,0,0,1,.08-.09h11.72a.11.11,0,0,1,.09.09v2.81a.11.11,0,0,1-.09.09h-4.12a.1.1,0,0,0-.09.08V31.57a.1.1,0,0,1-.08.09Z" transform="translate(-0.77 -12.38)"/><rect class="cls-2" x="124.77" y="4.47" width="2.9" height="14.8" rx="0.09"/><path class="cls-2" d="M141.88,31.64,134,24l0,0a.08.08,0,0,0-.09.09v7.51a.09.09,0,0,1-.08.09h-2.73a.1.1,0,0,1-.09-.09V16.94a.11.11,0,0,1,.09-.09l.06,0L139,24.52l0,0a.08.08,0,0,0,.09-.09V16.94a.1.1,0,0,1,.08-.09h2.73a.1.1,0,0,1,.08.09V31.57a.09.09,0,0,1-.08.09Z" transform="translate(-0.77 -12.38)"/><path class="cls-2" d="M146,29.44a7.78,7.78,0,0,1-1.88-5.18,7.19,7.19,0,0,1,7.19-7.54,6.55,6.55,0,0,1,5.45,2.59l0,.05,0,.08-2.24,2,0,0-.07-.05a3.74,3.74,0,0,0-3.13-1.48,3.17,3.17,0,0,0-.42,0,4.16,4.16,0,0,0-3.64,4.34,4.08,4.08,0,0,0,4.13,4.35,3.83,3.83,0,0,0,2.92-1.28.11.11,0,0,0,0-.07V26a.08.08,0,0,0-.09-.09h-2.94a.07.07,0,0,1-.08-.08V23.08c0-.07,0-.09.08-.09h5.84s.08,0,.08.09v5.75a.07.07,0,0,1,0,.06,7.32,7.32,0,0,1-5.83,2.92A7.13,7.13,0,0,1,146,29.44m11.16-.72.09,0-.09.09Z" transform="translate(-0.77 -12.38)"/><path class="cls-2" d="M50.57,46.47a.08.08,0,0,1-.07-.07V41.23l-3.82-7s0-.09.07-.09h2.6s0,0,0,0l2.24,4.13.08,0,.05,0L54,34.14a.15.15,0,0,1,.07,0h2.6a.1.1,0,0,1,.09.09l-3.83,7V46.4a.08.08,0,0,1-.07.07Z" transform="translate(-0.77 -12.38)"/><path class="cls-2" d="M64.42,46.47a.08.08,0,0,1-.07-.08V34.18a.07.07,0,0,1,.07-.07H70a3.72,3.72,0,0,1,0,7.43H66.84c-.06,0-.07,0-.07.06v4.79a.09.09,0,0,1-.07.08Zm6.73-8.64A1.2,1.2,0,0,0,70,36.6H66.84c-.06,0-.07,0-.07.07V39s0,.07.07.07H70a1.2,1.2,0,0,0,1.19-1.22" transform="translate(-0.77 -12.38)"/><path class="cls-2" d="M75,41.72V34.18a.08.08,0,0,1,.07-.07h2.28a.08.08,0,0,1,.07.07v7.54a2.19,2.19,0,1,0,4.38,0V34.18a.07.07,0,0,1,.07-.07h2.28a.08.08,0,0,1,.07.07v7.54a4.61,4.61,0,1,1-9.22,0" transform="translate(-0.77 -12.38)"/><path class="cls-2" d="M86.15,46.47V34.18a.07.07,0,0,1,.07-.07h5a3.73,3.73,0,0,1,2.84,6,3.77,3.77,0,0,1,1.09,2.67,3.65,3.65,0,0,1-3.6,3.71Zm6.28-8.64a1.2,1.2,0,0,0-1.18-1.23H88.63a.06.06,0,0,0-.07.07V39a.06.06,0,0,0,.07.07h2.62a1.2,1.2,0,0,0,1.18-1.22m.35,4.93a1.21,1.21,0,0,0-1.2-1.22h-3s-.07,0-.07.06v2.3c0,.06,0,.08.07.08h3a1.21,1.21,0,0,0,1.2-1.22" transform="translate(-0.77 -12.38)"/><path class="cls-2" d="M97.1,46.47A.08.08,0,0,1,97,46.4V34.18a.07.07,0,0,1,.07-.07h2.28a.08.08,0,0,1,.07.07v9.73c0,.05,0,.07.07.07H105a.07.07,0,0,1,.07.07V46.4a.08.08,0,0,1-.07.07Z" transform="translate(-0.77 -12.38)"/><path class="cls-2" d="M108.81,46.47h-2.28a.09.09,0,0,1-.07-.08V37.21a.08.08,0,0,1,.07-.07h2.28a.08.08,0,0,1,.07.07v9.18a.09.09,0,0,1-.07.08" transform="translate(-0.77 -12.38)"/><path class="cls-2" d="M106.53,35.69s-.07,0-.07,0V34.13s0,0,.07,0h2.28s.07,0,.07,0v1.53s0,0-.07,0Z" transform="translate(-0.77 -12.38)"/><path class="cls-2" d="M112.22,44.61a6.55,6.55,0,0,1-1.57-4.32A6,6,0,0,1,116.07,34a5.52,5.52,0,0,1,.58,0,5.45,5.45,0,0,1,4.55,2.16l0,0,0,.07-1.88,1.64,0,0,0,0a3.13,3.13,0,0,0-2.6-1.24,3.42,3.42,0,0,0-3.41,3.64,3.4,3.4,0,0,0,3.45,3.63,3.17,3.17,0,0,0,2.56-1.21l0,0,0,0,1.86,1.63,0,.06,0,0a5.59,5.59,0,0,1-4.55,2.18,5.93,5.93,0,0,1-4.43-2" transform="translate(-0.77 -12.38)"/><path class="cls-2" d="M127.25,46.47a.08.08,0,0,1-.07-.07V34.18a.08.08,0,0,1,.07-.07h4.2c3.39,0,5.07,3.23,5.07,6.18,0,3.58-2.14,6.18-5.07,6.18Zm6.83-6.18a4.49,4.49,0,0,0-.81-2.73,2.3,2.3,0,0,0-1.85-1h-1.75a.06.06,0,0,0-.07.07v7.25s0,.06.07.06h1.75c1.66,0,2.66-1.62,2.66-3.69" transform="translate(-0.77 -12.38)"/><path class="cls-2" d="M142,34.16a.07.07,0,0,0-.07,0s0,0-.06,0l-5.48,12.2v0s0,.07.08.07h2.48a.09.09,0,0,0,.08,0l.29-.66.22-.5,1.18-2.62.75-1.67.4-.9s0,0,.06,0a.07.07,0,0,1,.07,0l.49,1.11.66,1.49,1.16,2.59.22.5.3.66a.06.06,0,0,0,.06,0h2.51a.07.07,0,0,0,.06-.07Z" transform="translate(-0.77 -12.38)"/><path class="cls-2" d="M148.73,46.47a.08.08,0,0,1-.07-.07V34.18a.08.08,0,0,1,.07-.07h4.2c3.39,0,5.07,3.23,5.07,6.18,0,3.58-2.14,6.18-5.07,6.18Zm6.83-6.18a4.49,4.49,0,0,0-.81-2.73,2.3,2.3,0,0,0-1.85-1h-1.75a.06.06,0,0,0-.07.07v7.25s0,.06.07.06h1.75c1.66,0,2.66-1.62,2.66-3.69" transform="translate(-0.77 -12.38)"/><path class="cls-2" d="M125.14,34.2h-2.27a.08.08,0,0,0-.07.08v9.18a.07.07,0,0,0,.07.07h2.27a.07.07,0,0,0,.07-.07V34.28a.08.08,0,0,0-.07-.08" transform="translate(-0.77 -12.38)"/><path class="cls-2" d="M122.87,45s-.07,0-.07,0v1.53s0,0,.07,0h2.27s.07,0,.07,0V45s0,0-.07,0Z" transform="translate(-0.77 -12.38)"/></svg>