<?xml version="1.0" encoding="utf-8"?>
<!-- Generator: Adobe Illustrator 24.0.2, SVG Export Plug-In . SVG Version: 6.00 Build 0)  -->
<svg version="1.1" id="Capa_1" xmlns="http://www.w3.org/2000/svg" xmlns:xlink="http://www.w3.org/1999/xlink" x="0px" y="0px"
	 viewBox="0 0 300 300" style="enable-background:new 0 0 300 300;" xml:space="preserve">
<style type="text/css">
	.st0{fill:#66FCF0;}
</style>
<path class="st0" d="M213.59,82.7c6.69-0.16,15.84,0.27,25.28,2.68L184.77,5L1.49,135.74l90.66,134.7l34.11-23.99l-0.01-0.01
	l93.22-65.86l-25.31-37.91l-0.02,0.02l-28.55-42.42c-0.04,0.03-0.08,0.06-0.12,0.09l-5.84-8.67l-19.38,13.82l45.18,67.13
	l-44.06,31.43c0,0-0.21,0.15-0.42,0.3l-44.83-67.38l-17.06,12.17l44.83,67.38l0.84,1.25l-0.14,0.1l-29.86,20.87l-64.75-96.67
	l-0.53-0.78l0.37-0.27c0,0,24.74-17.65,54.16-38.63c43.21-30.82,96.52-68.85,96.52-68.85L213.59,82.7z"/>
<path class="st0" d="M299.18,162.77c0.41,26.57-12.27,51.77-33.93,67.41l-1.53,1.06L175.41,294l-27.16-40.83l-2.76-4.15l-7.07-10.63
	l-0.23-0.34l-0.06,0.04l-0.02-0.03l17.03-12.03l16.27,24.18l9.5,14.27c0.01,0.02,72.14-51.22,72.14-51.22
	c1.22-0.87,2.4-1.78,3.52-2.75c6.18-5.19,11.2-11.53,14.84-18.56c4.54-8.79,6.94-18.67,6.79-28.82c-0.12-7.51-1.61-14.75-4.24-21.42
	c-1.62-4.06-3.65-7.94-6.07-11.54c-8.51-12.65-21.75-22-37.62-25.5c-0.74-0.17-1.49-0.31-2.25-0.44c-3.98-0.76-8.07-1.09-12.16-1.02
	c-0.99,0.02-1.96,0.05-2.93,0.13c-0.37,0.02-0.73,0.06-1.09,0.09c-0.72,0.02-1.42,0.1-2.1,0.18c-0.02,0-0.05,0.01-0.07,0.01
	c-0.06,0.01-0.13,0.01-0.2,0.02c-1.67,0.2-3.32,0.48-4.96,0.82c-0.28,0.06-0.56,0.12-0.84,0.18c-0.61,0.09-1.23,0.34-1.86,0.47
	c-0.75,0.16-1.49,0.34-2.23,0.55c-1.44,0.41-2.86,0.89-4.24,1.44c-1.51,0.61-2.98,1.31-4.41,2.1c-8.59,4.22-13.27,9.1-13.27,9.1
	l-12.12-18c4.97-4.01,10.39-7.37,16.2-10.05c0,0,0.07-0.05,0.12-0.06c1.25-0.59,2.5-1.14,3.78-1.67c0.26-0.11,0.52-0.19,0.79-0.3
	c1.03-0.41,2.04-0.81,3.09-1.19c0.36-0.12,0.75-0.24,1.13-0.37c0.5-0.16,1.02-0.33,1.54-0.49c0.42-0.13,0.84-0.27,1.26-0.39
	c0.44-0.13,0.88-0.25,1.32-0.38c0.89-0.24,1.77-0.46,2.66-0.69c0.48-0.11,0.95-0.22,1.43-0.32c0.05-0.01,0.1-0.01,0.14-0.02
	c0.84-0.19,1.67-0.35,2.52-0.53c0.46-0.09,0.94-0.19,1.42-0.26c0,0,0.06-0.01,0.18-0.03c1.29-0.18,2.56-0.33,3.81-0.45
	c0.19-0.02,0.39-0.04,0.59-0.06c6.37-0.53,18.57-0.89,31.32,2.36l0.02,0.02c0.03,0.01,0.06,0.02,0.09,0.02
	c0.14,0.05,0.29,0.09,0.45,0.13c4.45,1.25,8.77,2.84,12.86,4.75c0.11,0.05,0.22,0.1,0.33,0.16c0.22,0.1,0.39,0.2,0.47,0.23
	c0.04,0.02,0.05,0.04,0.05,0.04C280.47,103.94,298.69,131.38,299.18,162.77"/>
</svg>
