<svg id="Capa_1" data-name="Capa 1" xmlns="http://www.w3.org/2000/svg" viewBox="0 0 286.93 270.57"><defs><style>.cls-1{fill:#fff;}</style></defs><title>FOOOTER si (1)</title><path class="cls-1" d="M209.14,85.46A94.16,94.16,0,0,1,233.51,88L181.37,12.72,4.72,135.12,92.1,261.23,125,238.77h0l89.84-61.66-24.39-35.5,0,0L162.88,101.9l-.11.09-5.63-8.12-18.68,12.94L182,169.66l-42.47,29.42-.4.29L95.93,136.29,79.49,147.68l43.2,63.08.82,1.17-.14.1L94.59,231.56l-62.41-90.5-.5-.74.36-.24,52.19-36.17,93-64.47Z" transform="translate(-4.72 -12.72)"/><path class="cls-1" d="M291.63,160.43c.4,24.87-11.82,48.46-32.7,63.11l-1.47,1-85.11,58.75-26.18-38.22-2.66-3.88-6.81-10-.22-.32-.06,0,0,0,16.42-11.27,15.68,22.63,9.15,13.36s69.53-47.95,69.53-47.95c1.17-.81,2.31-1.67,3.4-2.57a57.27,57.27,0,0,0,14.3-17.38,55.47,55.47,0,0,0,2.46-47,56.37,56.37,0,0,0-5.86-10.8A58.9,58.9,0,0,0,225.23,106c-.71-.15-1.43-.29-2.17-.4a58,58,0,0,0-11.72-1c-1,0-1.89,0-2.83.12-.36,0-.71.06-1,.09-.7,0-1.37.09-2,.16h-.06l-.19,0c-1.61.19-3.21.45-4.79.77l-.8.16c-.6.09-1.19.32-1.79.45s-1.44.32-2.15.51a40.78,40.78,0,0,0-4.09,1.35,39.86,39.86,0,0,0-4.25,2,49.09,49.09,0,0,0-12.78,8.51l-11.68-16.85a74.67,74.67,0,0,1,15.61-9.41.28.28,0,0,1,.12,0c1.2-.56,2.4-1.07,3.64-1.57l.76-.28c1-.38,2-.75,3-1.11.35-.11.72-.22,1.09-.35l1.48-.46,1.21-.37L191,88l2.56-.64L195,87l.13,0c.81-.18,1.61-.33,2.43-.49.45-.09.91-.18,1.37-.24l.17,0c1.24-.17,2.46-.31,3.67-.42l.57,0A97.16,97.16,0,0,1,233.47,88l0,0h.09a2.7,2.7,0,0,0,.43.13,83.53,83.53,0,0,1,12.39,4.44l.32.15.46.22,0,0c26.38,12.34,43.93,38,44.4,67.43" transform="translate(-4.72 -12.72)"/></svg>